<svg xmlns="http://www.w3.org/2000/svg" width="38.397" height="38.401" viewBox="0 0 38.397 38.401">
  <g id="Group_1546" data-name="Group 1546" transform="translate(0.15 0.15)">
    <g id="Group_203" data-name="Group 203">
      <path id="Path_128" data-name="Path 128" d="M275.443,2622.963a19.051,19.051,0,1,1,19.066-18.994A19.056,19.056,0,0,1,275.443,2622.963Zm.016-1.058a17.992,17.992,0,1,0-17.987-17.991A17.971,17.971,0,0,0,275.46,2621.9Z" transform="translate(-256.413 -2584.862)" fill="#00b0c7"/>
      <path id="Path_128_-_Outline" data-name="Path 128 - Outline" d="M275.507,2623.113h-.065a19.206,19.206,0,0,1-19.18-19.358,18.939,18.939,0,0,1,5.666-13.474,19.329,19.329,0,0,1,13.622-5.569h.07a18.752,18.752,0,0,1,7.4,1.539,19.393,19.393,0,0,1,10.16,10.261,19.089,19.089,0,0,1-.058,14.892,19.425,19.425,0,0,1-10.205,10.2A18.8,18.8,0,0,1,275.507,2623.113Zm.043-38.1a18.97,18.97,0,0,0-13.411,5.482,18.58,18.58,0,0,0-5.577,13.261,18.907,18.907,0,0,0,18.881,19.057h.063a18.5,18.5,0,0,0,7.288-1.486,18.992,18.992,0,0,0,11.564-17.359,18.6,18.6,0,0,0-1.459-7.339,19.091,19.091,0,0,0-10-10.1,18.456,18.456,0,0,0-7.279-1.515Zm-.077,37.042h-.015a18.156,18.156,0,0,1-7.089-34.857,17.858,17.858,0,0,1,7.026-1.427h.024a18.142,18.142,0,1,1,.053,36.284Zm-.077-35.984a17.677,17.677,0,0,0-12.557,5.228,17.842,17.842,0,0,0,12.62,30.457h.014a17.842,17.842,0,1,0-.054-35.684Z" transform="translate(-256.413 -2584.862)" fill="#00b0c7"/>
      <path id="Path_129" data-name="Path 129" d="M266.847,2615.618c0-.359-.013-.626,0-.89.024-.385.168-.534.555-.57,1.035-.1,2.071-.185,3.106-.277,1.377-.121,2.754-.24,4.13-.365.506-.046.733.177.636.682a4.4,4.4,0,0,0,3.017,5.135.481.481,0,0,1,.285.822q-2.122,3.031-4.257,6.054c-.216.307-.431.334-.807.128a12.607,12.607,0,0,1-5.617-6.118A12.431,12.431,0,0,1,266.847,2615.618Zm7.387-1.1c-.44.038-.858.072-1.275.109-1.587.14-3.174.286-4.762.418-.3.025-.4.125-.392.445a11.686,11.686,0,0,0,2.855,7.341,11.342,11.342,0,0,0,3.086,2.536l3.724-5.3A5.485,5.485,0,0,1,274.233,2614.52Z" transform="translate(-260.501 -2596.092)" fill="#00b0c7"/>
      <path id="Path_129_-_Outline" data-name="Path 129 - Outline" d="M274.765,2613.361a.679.679,0,0,1,.553.214.764.764,0,0,1,.106.652,4.314,4.314,0,0,0,.584,3.2,4.253,4.253,0,0,0,2.328,1.76.627.627,0,0,1,.366,1.052c-1.331,1.9-2.723,3.881-4.258,6.054a.649.649,0,0,1-.526.324,1.006,1.006,0,0,1-.476-.152,12.8,12.8,0,0,1-5.682-6.189,12.535,12.535,0,0,1-1.063-4.652v-.009c0-.118,0-.225,0-.326,0-.209-.005-.391.006-.573a.656.656,0,0,1,.69-.71c.765-.072,1.543-.14,2.3-.206l.812-.071,1.1-.1c.994-.087,2.023-.177,3.034-.269C274.675,2613.363,274.721,2613.361,274.765,2613.361Zm-.847,12.959c.07,0,.159-.023.281-.2,1.534-2.173,2.927-4.153,4.257-6.053a.441.441,0,0,0,.1-.368.436.436,0,0,0-.3-.224,4.552,4.552,0,0,1-3.122-5.307.525.525,0,0,0-.043-.4.5.5,0,0,0-.432-.1c-1.012.092-2.04.182-3.035.269l-1.1.1-.812.071c-.752.066-1.529.134-2.293.205-.313.029-.4.117-.419.43-.011.171-.008.347-.006.551,0,.1,0,.208,0,.326a12.253,12.253,0,0,0,1.037,4.544,12.511,12.511,0,0,0,5.552,6.047A.749.749,0,0,0,273.918,2626.32Zm.473-11.964-.008.171a5.333,5.333,0,0,0,3.154,5.414l.154.079-.1.141-3.724,5.3-.078.111-.118-.067a11.429,11.429,0,0,1-3.126-2.57,11.887,11.887,0,0,1-2.89-7.433c-.014-.394.139-.568.53-.6,1.089-.09,2.2-.189,3.267-.285l1.494-.133.727-.062.548-.047Zm2.857,5.771a5.586,5.586,0,0,1-3.17-5.443l-.38.032-.726.062-1.494.133c-1.071.1-2.179.195-3.269.285-.227.019-.263.059-.255.29a11.593,11.593,0,0,0,2.819,7.25,11.1,11.1,0,0,0,2.927,2.435Z" transform="translate(-260.501 -2596.092)" fill="#00b0c7"/>
      <path id="Path_130" data-name="Path 130" d="M301.035,2615.325a12.646,12.646,0,0,1-6.661,11.017c-.407.232-.594.182-.867-.205q-2.074-2.943-4.144-5.89c-.332-.473-.235-.753.314-.943a4.38,4.38,0,0,0,2.926-5.063c-.106-.542.111-.767.662-.717,1.872.168,3.745.329,5.618.493.506.044,1.013.091,1.52.136.47.041.62.2.631.674C301.039,2614.993,301.035,2615.159,301.035,2615.325Zm-10.624,4.75,3.72,5.284c3.324-1.5,6.45-6.923,5.912-10.27l-6.385-.568A5.509,5.509,0,0,1,290.411,2620.075Z" transform="translate(-269.254 -2596.094)" fill="#00b0c7"/>
      <path id="Path_130_-_Outline" data-name="Path 130 - Outline" d="M293.125,2613.367c.048,0,.1,0,.154.007,1.261.114,2.544.225,3.785.333l1.833.16.916.082.6.054c.546.048.754.27.768.82,0,.116,0,.232,0,.345,0,.052,0,.1,0,.156v.008a13.892,13.892,0,0,1-1.845,6.489,13.158,13.158,0,0,1-4.892,4.65.969.969,0,0,1-.473.159.758.758,0,0,1-.591-.408c-1.55-2.2-2.906-4.126-4.144-5.89a.811.811,0,0,1-.195-.706c.065-.2.25-.35.583-.465a4.223,4.223,0,0,0,2.828-4.892.8.8,0,0,1,.1-.688A.7.7,0,0,1,293.125,2613.367Zm7.76,1.954c0-.052,0-.1,0-.154,0-.11,0-.225,0-.335-.01-.4-.1-.495-.494-.529l-.605-.054-.915-.082-1.833-.16c-1.241-.108-2.524-.22-3.786-.333-.234-.021-.391.013-.463.1a.548.548,0,0,0-.039.44,4.517,4.517,0,0,1-3.025,5.233c-.229.079-.362.171-.4.274s.02.249.155.441c1.238,1.763,2.594,3.69,4.144,5.889.164.233.257.281.345.281a.718.718,0,0,0,.325-.12,12.862,12.862,0,0,0,4.783-4.543A13.6,13.6,0,0,0,300.885,2615.321Zm-7.383-.965.169.015,5.507.49.994.088.019.115a9.744,9.744,0,0,1-1.525,5.925,10.966,10.966,0,0,1-4.472,4.506l-.113.051-.071-.1-3.82-5.426.155-.078a5.357,5.357,0,0,0,3.164-5.415Zm6.41.871-.76-.068-5.34-.475a6.116,6.116,0,0,1-.757,3.219,5.935,5.935,0,0,1-2.422,2.226l3.549,5.041a10.821,10.821,0,0,0,4.224-4.33A9.618,9.618,0,0,0,299.912,2615.228Z" transform="translate(-269.254 -2596.094)" fill="#00b0c7"/>
      <path id="Path_131" data-name="Path 131" d="M283.179,2595.3a12.716,12.716,0,0,1,6.678,1.862c.44.268.494.435.28.9q-1.5,3.235-3,6.468c-.247.53-.536.591-.97.212a4.373,4.373,0,0,0-5.848-.007c-.451.395-.738.334-.992-.214q-1.5-3.233-3-6.467c-.209-.451-.161-.614.264-.873A12.651,12.651,0,0,1,283.179,2595.3Zm3.281,8.411,2.7-5.812c-2.706-2.13-9.548-2.118-11.844.017l2.7,5.8A5.459,5.459,0,0,1,286.459,2603.708Z" transform="translate(-264.17 -2588.953)" fill="#00b0c7"/>
      <path id="Path_131_-_Outline" data-name="Path 131 - Outline" d="M283.178,2595.147h0a12.8,12.8,0,0,1,6.755,1.884c.51.31.585.554.338,1.089-.9,1.945-1.855,4-3,6.468-.062.134-.252.541-.624.541a.921.921,0,0,1-.581-.28,4.224,4.224,0,0,0-5.65-.007.941.941,0,0,1-.6.291c-.334,0-.52-.317-.63-.555q-1.5-3.233-3-6.467c-.241-.519-.165-.767.322-1.064A12.808,12.808,0,0,1,283.178,2595.147Zm3.47,9.682c.045,0,.18,0,.352-.368,1.146-2.467,2.1-4.522,3-6.467.181-.392.155-.478-.221-.706a12.549,12.549,0,0,0-13.114.017c-.358.218-.383.3-.206.681q1.5,3.234,3,6.467c.177.381.313.381.358.381a.706.706,0,0,0,.4-.217,4.523,4.523,0,0,1,6.045.007A.67.67,0,0,0,286.648,2604.829Zm-3.542-8.674a10.43,10.43,0,0,1,6.145,1.623l.093.073-2.821,6.076-.145-.094a5.31,5.31,0,0,0-6.286,0l-.145.094-2.815-6.055.08-.074C278.322,2596.772,280.525,2596.156,283.106,2596.156Zm5.865,1.787a10.335,10.335,0,0,0-5.865-1.487c-2.407,0-4.54.571-5.609,1.5l2.577,5.543a5.559,5.559,0,0,1,6.322,0Z" transform="translate(-264.17 -2588.953)" fill="#00b0c7"/>
      <path id="Path_132" data-name="Path 132" d="M282.3,2614.035a3.328,3.328,0,0,1,6.655-.02,3.328,3.328,0,1,1-6.655.02Zm5.684.019a2.364,2.364,0,1,0-2.366,2.363A2.358,2.358,0,0,0,287.988,2614.054Z" transform="translate(-266.562 -2594.998)" fill="#00b0c7"/>
      <path id="Path_132_-_Outline" data-name="Path 132 - Outline" d="M285.615,2610.569h0a3.49,3.49,0,0,1,3.49,3.445,3.515,3.515,0,0,1-3.5,3.514H285.6a3.482,3.482,0,0,1-3.445-3.492,3.459,3.459,0,0,1,3.461-3.466Zm0,6.658a3.179,3.179,0,1,0,.006-6.358v-.15l0,.15a3.159,3.159,0,0,0-3.161,3.166,3.181,3.181,0,0,0,3.147,3.192Zm.021-5.7h.01a2.475,2.475,0,0,1,1.767.742,2.527,2.527,0,0,1-1.777,4.3h-.013a2.521,2.521,0,1,1,.013-5.043Zm0,4.743a2.227,2.227,0,0,0,1.563-3.79,2.177,2.177,0,0,0-1.555-.653h-.009a2.222,2.222,0,0,0-.011,4.443Z" transform="translate(-266.562 -2594.998)" fill="#00b0c7"/>
    </g>
  </g>
</svg>
